<svg id="svg" version="1.1" xmlns="http://www.w3.org/2000/svg" xmlns:xlink="http://www.w3.org/1999/xlink" width="400" height="400" viewBox="0, 0, 400,400"><g id="svgg"><path id="path0" d="M152.044 139.000 C 137.434 139.872,126.914 144.984,125.256 152.017 C 123.853 157.968,127.414 165.109,137.505 176.583 C 151.806 192.845,158.975 202.430,159.677 206.230 C 160.530 210.845,157.151 212.757,145.667 214.155 C 137.917 215.099,131.478 215.407,110.917 215.817 C 102.913 215.977,102.103 216.070,101.379 216.911 C 98.854 219.847,108.049 222.475,126.441 224.075 C 161.120 227.093,180.564 218.569,174.906 202.831 C 172.899 197.248,169.130 191.878,152.681 171.167 C 142.236 158.014,141.378 156.804,141.202 154.977 C 140.739 150.155,151.008 147.883,175.000 147.499 C 180.556 147.411,184.037 147.290,184.535 147.168 C 188.079 146.301,186.574 143.584,181.643 141.948 C 175.569 139.931,160.904 138.471,152.044 139.000 " stroke="none" fill="#dc9c3b" fill-rule="evenodd"></path><path id="path1" d="M73.009 160.001 C 57.557 160.921,44.305 164.466,44.721 167.567 C 44.964 169.374,44.973 169.375,60.000 169.510 C 67.012 169.573,73.800 169.709,75.083 169.812 C 97.535 171.613,102.463 176.249,96.095 189.583 C 89.729 202.915,76.441 214.541,55.250 225.321 C 49.335 228.330,46.210 228.506,45.507 225.869 C 45.118 224.406,46.837 220.410,51.582 211.750 C 56.563 202.658,59.224 197.897,63.550 190.333 C 67.631 183.198,67.750 182.938,67.750 181.195 C 67.750 177.046,63.796 178.370,58.958 184.140 C 52.635 191.679,41.960 209.059,30.570 230.357 C 25.657 239.544,25.107 240.770,25.593 241.463 C 26.806 243.195,43.578 238.587,57.333 232.743 C 87.830 219.787,107.824 202.021,114.238 182.180 C 117.023 173.566,114.625 168.336,106.250 164.756 C 97.820 161.152,84.843 159.296,73.009 160.001 " stroke="none" fill="#443c93" fill-rule="evenodd"></path><path id="path2" d="M105.167 85.945 C 103.659 86.033,100.053 86.357,98.917 86.507 C 98.275 86.592,97.375 86.705,96.917 86.759 C 90.264 87.534,82.820 89.676,81.125 91.301 C 79.943 92.435,80.537 93.768,82.360 94.072 C 83.719 94.298,84.716 94.346,89.500 94.411 C 98.943 94.541,108.631 95.087,113.355 95.758 C 113.688 95.805,114.250 95.880,114.605 95.925 C 119.288 96.521,125.500 98.184,125.500 98.843 C 125.500 98.907,125.719 99.050,125.986 99.161 C 126.987 99.575,128.515 101.614,128.754 102.852 C 129.207 105.204,128.309 108.139,125.831 112.417 C 125.618 112.783,125.255 113.421,125.024 113.833 C 124.792 114.246,124.558 114.621,124.502 114.667 C 124.447 114.712,123.888 115.500,123.259 116.417 C 122.631 117.333,121.939 118.308,121.723 118.583 C 121.506 118.858,121.269 119.159,121.196 119.251 C 121.122 119.343,120.692 119.898,120.240 120.484 C 119.787 121.070,119.229 121.751,119.000 121.998 C 118.771 122.244,118.456 122.618,118.301 122.828 C 117.397 124.054,110.612 130.965,107.988 133.333 C 107.088 134.146,106.493 134.687,105.008 136.044 C 104.784 136.249,104.109 136.820,103.508 137.312 C 102.908 137.805,102.379 138.260,102.333 138.324 C 102.287 138.388,101.800 138.804,101.250 139.248 C 100.700 139.692,99.621 140.587,98.853 141.236 C 98.084 141.885,97.206 142.604,96.901 142.833 C 95.371 143.985,93.410 145.568,93.361 145.693 C 93.331 145.770,93.206 145.833,93.083 145.833 C 92.961 145.833,92.836 145.894,92.806 145.969 C 92.775 146.043,92.300 146.432,91.750 146.833 C 91.200 147.234,90.408 147.848,89.989 148.198 C 89.571 148.547,89.140 148.833,89.031 148.833 C 88.922 148.833,88.833 148.910,88.833 149.004 C 88.833 149.098,88.665 149.250,88.458 149.342 C 86.879 150.044,85.676 151.442,86.200 151.967 C 86.652 152.419,89.930 151.477,92.542 150.145 C 92.885 149.970,93.167 149.861,93.167 149.902 C 93.167 149.944,93.748 149.716,94.458 149.396 C 95.169 149.076,95.919 148.743,96.125 148.657 C 96.331 148.571,96.669 148.430,96.875 148.344 C 98.389 147.712,105.250 144.272,107.479 143.026 C 108.980 142.187,110.268 141.500,110.340 141.500 C 110.413 141.500,110.497 141.443,110.528 141.372 C 110.585 141.241,112.621 140.000,112.779 140.000 C 112.926 140.000,116.746 137.435,116.806 137.296 C 116.836 137.225,116.930 137.167,117.013 137.167 C 117.097 137.167,117.635 136.830,118.208 136.419 C 118.781 136.008,119.502 135.502,119.809 135.294 C 120.117 135.087,120.651 134.673,120.996 134.375 C 121.341 134.077,121.677 133.833,121.742 133.833 C 121.851 133.833,123.020 132.929,123.680 132.333 C 123.833 132.196,124.174 131.921,124.437 131.723 C 124.921 131.358,125.028 131.268,126.647 129.862 C 127.833 128.832,132.765 123.948,133.563 123.015 C 136.768 119.261,139.066 115.879,140.876 112.250 C 141.242 111.517,141.675 110.654,141.838 110.333 C 142.001 110.013,142.247 109.375,142.385 108.917 C 142.523 108.458,142.749 107.820,142.887 107.498 C 143.712 105.573,144.244 100.669,143.808 99.000 C 143.748 98.771,143.644 98.358,143.578 98.083 C 143.111 96.161,141.212 93.477,139.508 92.333 C 139.303 92.196,138.947 91.924,138.717 91.730 C 137.775 90.934,133.594 89.085,131.539 88.556 C 128.721 87.830,127.739 87.600,125.917 87.243 C 119.967 86.076,111.741 85.562,105.167 85.945 M164.000 237.667 L 164.000 242.500 169.750 242.500 L 175.500 242.500 175.500 237.667 L 175.500 232.833 169.750 232.833 L 164.000 232.833 164.000 237.667 M90.250 241.293 C 88.748 241.478,85.622 242.440,85.000 242.908 C 84.862 243.012,84.487 243.218,84.167 243.366 C 80.218 245.190,77.786 250.427,77.915 256.833 C 78.015 261.838,79.183 264.783,82.337 267.981 C 83.741 269.405,87.307 272.167,87.741 272.167 C 87.784 272.167,88.103 272.360,88.451 272.597 C 88.799 272.833,89.796 273.435,90.667 273.934 C 96.631 277.353,98.001 279.036,97.793 282.688 C 97.608 285.935,95.770 287.758,93.024 287.418 C 92.126 287.306,90.333 286.603,90.333 286.361 C 90.333 286.298,90.157 286.056,89.941 285.824 C 89.597 285.453,89.075 284.204,88.914 283.368 C 88.883 283.211,88.853 281.902,88.846 280.458 L 88.833 277.833 83.000 277.833 L 77.167 277.833 77.152 280.792 C 77.127 286.150,77.264 287.147,78.344 289.419 C 79.263 291.353,81.612 294.167,82.308 294.167 C 82.413 294.167,82.500 294.230,82.500 294.308 C 82.500 294.700,85.828 296.129,87.833 296.598 C 91.071 297.354,96.401 297.276,99.500 296.425 C 103.955 295.203,107.844 291.421,108.749 287.432 C 108.792 287.240,108.936 286.697,109.067 286.224 C 110.217 282.093,109.446 274.661,107.560 271.705 C 107.252 271.222,107.000 270.758,107.000 270.675 C 107.000 270.447,104.171 267.602,103.500 267.155 C 103.179 266.941,102.879 266.724,102.833 266.673 C 102.644 266.463,100.357 265.004,99.583 264.600 C 99.125 264.360,98.577 264.038,98.365 263.884 C 98.153 263.731,97.383 263.262,96.655 262.844 C 91.009 259.603,89.583 258.052,89.583 255.156 C 89.583 252.057,91.356 250.455,94.237 250.949 C 96.585 251.351,97.539 252.925,97.778 256.792 L 97.884 258.500 103.692 258.500 L 109.500 258.500 109.520 258.042 C 109.530 257.790,109.528 256.946,109.514 256.167 C 109.492 254.917,109.427 254.365,109.065 252.377 C 108.768 250.741,107.747 248.462,106.644 246.972 C 105.762 245.780,103.740 243.833,103.384 243.833 C 103.264 243.833,103.167 243.767,103.167 243.686 C 103.167 243.553,102.545 243.220,100.805 242.422 C 100.468 242.267,100.093 242.121,99.971 242.096 C 99.850 242.071,99.536 241.964,99.274 241.856 C 97.917 241.301,92.784 240.981,90.250 241.293 M147.126 269.083 L 147.169 295.833 152.834 295.833 L 158.500 295.833 158.500 269.083 L 158.500 242.333 152.792 242.333 L 147.083 242.333 147.126 269.083 M198.611 242.444 C 198.550 242.506,198.498 246.387,198.495 251.069 L 198.489 259.583 198.128 259.083 C 195.226 255.069,189.956 253.643,185.867 255.764 C 184.558 256.443,182.333 258.835,182.333 259.562 C 182.333 259.696,182.271 259.831,182.194 259.861 C 181.954 259.957,181.189 262.178,180.798 263.917 C 180.271 266.254,180.207 284.704,180.717 287.250 C 181.254 289.934,181.309 290.123,182.104 291.958 C 184.991 298.630,194.105 298.933,198.438 292.502 L 199.167 291.420 199.167 293.710 L 199.167 296.000 204.583 296.000 L 210.000 296.000 210.000 269.167 L 210.000 242.333 204.361 242.333 C 201.260 242.333,198.672 242.383,198.611 242.444 M212.333 242.427 C 212.333 242.478,212.528 243.359,212.766 244.385 C 213.004 245.411,213.227 246.475,213.263 246.750 C 213.299 247.025,213.412 247.625,213.514 248.083 C 213.615 248.542,213.832 249.517,213.995 250.250 C 214.158 250.983,214.386 252.033,214.501 252.583 C 214.616 253.133,214.854 254.170,215.028 254.887 C 215.203 255.604,215.389 256.504,215.442 256.887 C 215.494 257.270,215.680 258.221,215.854 259.000 C 216.029 259.779,216.325 261.167,216.512 262.083 C 216.699 263.000,216.958 264.162,217.087 264.667 C 217.215 265.171,217.478 266.408,217.670 267.417 C 217.862 268.425,218.162 269.850,218.336 270.583 C 218.509 271.317,218.696 272.173,218.750 272.486 C 218.804 272.799,218.875 273.099,218.907 273.153 C 218.940 273.206,219.009 273.512,219.060 273.833 C 219.187 274.627,220.281 279.846,220.579 281.083 C 220.712 281.633,220.864 282.340,220.918 282.653 C 220.971 282.966,221.041 283.266,221.074 283.319 C 221.107 283.373,221.177 283.679,221.229 284.000 C 221.365 284.829,222.459 290.057,222.746 291.250 C 222.878 291.800,223.021 292.438,223.062 292.667 C 223.263 293.770,223.705 295.761,223.775 295.874 C 223.867 296.023,230.685 296.046,231.070 295.899 C 231.215 295.843,231.333 295.642,231.333 295.451 C 231.333 295.261,231.440 294.650,231.571 294.094 C 231.701 293.538,231.968 292.333,232.164 291.417 C 232.359 290.500,232.590 289.450,232.676 289.083 C 232.762 288.717,232.873 288.154,232.922 287.833 C 232.971 287.512,233.080 287.025,233.164 286.750 C 233.249 286.475,233.363 285.924,233.419 285.525 C 233.475 285.126,233.583 284.637,233.658 284.439 C 233.734 284.241,233.845 283.710,233.906 283.259 C 233.968 282.808,234.054 282.380,234.099 282.307 C 234.144 282.235,234.299 281.592,234.443 280.879 C 234.588 280.166,234.803 279.133,234.922 278.583 C 235.041 278.033,235.255 277.021,235.398 276.333 C 235.541 275.646,235.700 274.896,235.751 274.667 C 235.945 273.802,236.146 272.880,236.384 271.750 C 236.520 271.108,236.972 269.008,237.389 267.083 C 237.805 265.158,238.182 263.396,238.225 263.167 C 238.269 262.938,238.382 262.412,238.476 262.000 C 238.570 261.587,238.683 261.063,238.726 260.833 C 238.769 260.604,238.919 259.854,239.060 259.167 C 239.412 257.438,239.991 253.346,240.251 250.750 C 240.306 250.199,240.379 249.599,240.413 249.416 C 240.447 249.233,240.480 248.802,240.487 248.458 C 240.519 246.886,240.795 248.113,241.050 250.958 C 241.322 254.009,241.672 256.739,242.006 258.417 C 242.097 258.875,242.209 259.438,242.254 259.667 C 242.300 259.896,242.377 260.308,242.427 260.583 C 242.477 260.858,242.708 262.021,242.941 263.167 C 243.174 264.313,243.397 265.438,243.436 265.667 C 243.621 266.736,244.025 268.816,244.165 269.417 C 244.251 269.783,244.626 271.696,244.999 273.667 C 245.371 275.637,245.782 277.737,245.912 278.333 C 246.041 278.929,246.454 281.029,246.829 283.000 C 247.205 284.971,247.593 286.958,247.692 287.417 C 247.792 287.875,247.970 288.737,248.089 289.333 C 248.207 289.929,248.350 290.642,248.405 290.917 C 248.461 291.192,248.704 292.449,248.945 293.711 L 249.384 296.006 253.067 295.961 L 256.750 295.917 257.187 294.167 C 258.215 290.050,258.720 287.936,258.759 287.579 C 258.782 287.370,258.919 286.792,259.063 286.295 C 259.207 285.799,259.445 284.835,259.591 284.154 C 259.738 283.474,259.890 282.785,259.929 282.625 C 259.968 282.465,260.031 282.202,260.068 282.042 C 260.105 281.881,260.296 281.075,260.492 280.250 C 260.873 278.646,260.994 278.112,261.095 277.583 C 261.130 277.400,261.309 276.650,261.492 275.917 C 262.220 272.998,263.189 268.894,263.242 268.500 C 263.274 268.271,263.418 267.671,263.563 267.167 C 263.708 266.662,263.946 265.688,264.092 265.000 C 264.238 264.313,264.390 263.619,264.429 263.458 C 264.468 263.298,264.531 263.026,264.570 262.853 C 264.608 262.681,264.830 261.762,265.062 260.812 C 265.294 259.861,265.518 258.896,265.560 258.667 C 265.603 258.438,265.827 257.462,266.058 256.500 C 266.863 253.147,267.653 249.747,267.731 249.294 C 267.775 249.044,267.845 248.781,267.888 248.711 C 267.931 248.641,268.168 247.683,268.416 246.583 C 268.901 244.422,268.967 244.134,269.114 243.500 C 269.382 242.343,269.600 242.421,265.972 242.372 L 262.695 242.326 262.440 243.455 C 262.300 244.076,262.030 245.408,261.840 246.417 C 261.649 247.425,261.424 248.512,261.338 248.833 C 261.252 249.154,261.139 249.679,261.085 250.000 C 261.032 250.321,260.956 250.696,260.917 250.833 C 260.877 250.971,260.802 251.346,260.749 251.667 C 260.696 251.987,260.584 252.512,260.500 252.833 C 260.416 253.154,260.113 254.579,259.827 256.000 C 259.541 257.421,259.272 258.733,259.231 258.917 C 259.189 259.100,259.123 259.438,259.084 259.667 C 258.957 260.422,258.823 261.070,258.585 262.083 C 258.455 262.633,258.156 264.021,257.919 265.167 C 257.682 266.313,257.309 268.112,257.089 269.167 C 256.869 270.221,256.576 271.646,256.437 272.333 C 256.298 273.021,255.917 274.858,255.590 276.417 C 255.262 277.975,254.955 279.438,254.908 279.667 C 254.377 282.222,253.770 286.401,253.400 290.045 C 253.336 290.666,253.258 291.147,253.224 291.113 C 253.166 291.055,252.966 289.495,252.750 287.417 C 252.693 286.867,252.617 286.192,252.581 285.917 C 252.545 285.642,252.471 285.042,252.416 284.583 C 252.148 282.339,251.384 277.642,250.994 275.833 C 250.905 275.421,250.754 274.633,250.659 274.083 C 250.564 273.533,250.305 272.183,250.085 271.083 C 249.864 269.983,249.491 268.071,249.256 266.833 C 249.021 265.596,248.792 264.396,248.746 264.167 C 248.701 263.938,248.470 262.700,248.232 261.417 C 247.995 260.133,247.766 259.028,247.724 258.959 C 247.683 258.891,247.612 258.535,247.568 258.168 C 247.524 257.800,247.296 256.544,247.062 255.375 C 246.828 254.206,246.492 252.425,246.316 251.417 C 246.139 250.408,245.925 249.358,245.840 249.083 C 245.754 248.808,245.635 248.208,245.575 247.750 C 245.515 247.292,245.286 246.067,245.066 245.028 C 244.847 243.990,244.667 242.957,244.667 242.734 L 244.667 242.327 240.891 242.372 C 237.690 242.410,237.108 242.455,237.068 242.667 C 237.042 242.804,236.905 243.448,236.764 244.098 C 236.622 244.748,236.460 245.573,236.403 245.932 C 236.347 246.290,236.272 246.630,236.236 246.688 C 236.201 246.745,236.025 247.533,235.846 248.438 C 235.567 249.839,234.664 254.161,234.178 256.417 C 234.099 256.783,233.869 257.871,233.667 258.833 C 233.465 259.796,233.282 260.658,233.260 260.750 C 233.238 260.842,233.163 261.217,233.094 261.583 C 233.024 261.950,232.865 262.662,232.740 263.167 C 232.615 263.671,232.480 264.346,232.439 264.667 C 232.399 264.987,232.213 265.887,232.027 266.667 C 231.841 267.446,231.450 269.246,231.158 270.667 C 230.867 272.087,230.496 273.887,230.334 274.667 C 229.433 279.010,229.151 280.440,228.843 282.250 C 228.656 283.350,228.469 284.512,228.429 284.833 C 228.389 285.154,228.281 285.904,228.190 286.500 C 228.099 287.096,227.983 287.996,227.932 288.500 C 227.574 292.065,227.590 292.012,227.439 290.128 C 227.378 289.370,227.295 288.487,227.255 288.167 C 227.214 287.846,227.140 287.208,227.089 286.750 C 226.770 283.882,226.054 279.466,225.087 274.417 C 224.720 272.496,224.624 272.008,224.496 271.417 C 224.417 271.050,224.302 270.375,224.241 269.917 C 224.181 269.458,224.101 269.033,224.064 268.972 C 224.027 268.911,223.886 268.236,223.751 267.472 C 223.616 266.708,223.468 265.896,223.422 265.667 C 223.376 265.438,223.301 265.063,223.256 264.833 C 223.210 264.604,223.131 264.154,223.079 263.833 C 223.028 263.512,222.837 262.500,222.654 261.583 C 222.471 260.667,222.281 259.654,222.232 259.333 C 222.184 259.012,221.919 257.625,221.644 256.250 C 221.369 254.875,221.113 253.524,221.075 253.249 C 221.038 252.973,220.814 251.736,220.578 250.499 C 219.740 246.101,219.511 244.912,219.435 244.557 C 219.393 244.359,219.305 243.834,219.239 243.390 C 219.174 242.946,219.037 242.528,218.935 242.461 C 218.721 242.319,212.333 242.286,212.333 242.427 M322.333 269.167 L 322.333 296.008 325.208 295.962 L 328.083 295.917 328.167 288.734 C 328.256 281.028,328.197 281.535,329.125 280.504 C 329.331 280.274,329.500 280.035,329.500 279.972 C 329.500 279.909,329.595 279.758,329.711 279.637 C 329.886 279.453,330.283 278.949,331.458 277.417 C 331.528 277.325,331.725 277.034,331.894 276.770 L 332.203 276.290 333.035 277.853 C 333.493 278.713,335.744 283.148,338.037 287.708 L 342.207 296.000 345.409 296.000 C 347.170 296.000,348.657 295.954,348.713 295.898 C 348.805 295.806,347.832 293.847,345.204 288.833 C 344.699 287.871,343.908 286.333,343.445 285.417 C 342.983 284.500,342.562 283.712,342.510 283.667 C 342.459 283.621,341.929 282.626,341.333 281.455 C 340.737 280.284,340.097 279.047,339.910 278.705 C 339.157 277.328,338.765 276.579,338.755 276.500 C 338.740 276.378,337.270 273.544,336.767 272.667 C 336.286 271.826,336.226 271.414,336.558 271.217 C 336.682 271.143,337.149 270.596,337.596 270.000 C 338.043 269.404,338.511 268.811,338.635 268.682 C 338.760 268.553,339.172 268.028,339.551 267.515 C 339.929 267.003,340.466 266.319,340.744 265.996 C 341.022 265.673,341.475 265.121,341.750 264.769 C 342.025 264.417,342.363 263.993,342.500 263.827 C 342.637 263.661,342.938 263.284,343.167 262.990 C 343.396 262.696,343.790 262.211,344.042 261.914 C 344.294 261.616,344.500 261.330,344.500 261.277 C 344.500 261.225,344.669 261.007,344.875 260.793 C 345.081 260.579,345.700 259.814,346.250 259.093 C 346.800 258.373,347.530 257.476,347.873 257.100 C 348.216 256.724,348.497 256.360,348.498 256.292 C 348.499 256.223,346.964 256.167,345.087 256.167 L 341.675 256.167 340.414 257.875 C 339.720 258.815,338.950 259.839,338.704 260.151 C 338.457 260.464,338.179 260.847,338.086 261.004 C 337.914 261.293,335.329 264.748,335.007 265.119 C 334.911 265.230,334.745 265.511,334.639 265.744 C 334.533 265.976,334.385 266.167,334.311 266.167 C 334.236 266.167,334.065 266.373,333.931 266.625 C 333.796 266.877,333.513 267.285,333.301 267.532 C 333.090 267.779,332.654 268.357,332.333 268.816 C 332.012 269.275,331.694 269.655,331.625 269.659 C 331.556 269.663,331.500 269.779,331.500 269.917 C 331.500 270.054,331.438 270.167,331.361 270.167 C 331.285 270.167,330.992 270.523,330.709 270.958 C 330.427 271.394,330.046 271.922,329.863 272.133 C 329.680 272.344,329.280 272.885,328.974 273.337 C 328.667 273.789,328.361 274.160,328.293 274.162 C 328.224 274.165,328.149 267.023,328.126 258.292 L 328.083 242.417 325.208 242.371 L 322.333 242.325 322.333 269.167 M124.250 255.016 C 121.080 255.467,118.569 256.528,116.786 258.170 C 116.170 258.738,115.667 259.272,115.667 259.358 C 115.667 259.444,115.510 259.680,115.318 259.882 C 114.582 260.657,113.759 262.876,113.233 265.500 C 113.057 266.378,113.000 285.232,113.169 286.640 C 113.538 289.707,114.799 292.168,116.920 293.958 C 117.490 294.440,118.011 294.833,118.077 294.833 C 118.144 294.833,118.435 295.002,118.724 295.208 C 119.013 295.414,119.268 295.566,119.290 295.546 C 119.311 295.526,119.666 295.654,120.077 295.831 C 122.112 296.703,124.882 297.159,128.167 297.162 C 130.043 297.165,130.702 297.105,132.667 296.755 C 137.874 295.827,140.815 293.220,142.264 288.250 L 142.750 286.583 142.750 276.167 C 142.750 265.126,142.694 264.254,141.886 262.625 C 141.760 262.373,141.694 262.167,141.739 262.167 C 142.118 262.167,140.410 259.568,139.328 258.500 C 136.292 255.502,130.403 254.142,124.250 255.016 M278.454 255.507 C 277.649 255.680,276.749 255.931,276.454 256.065 C 276.158 256.198,275.748 256.355,275.542 256.415 C 275.335 256.474,275.167 256.592,275.167 256.678 C 275.167 256.763,275.092 256.833,275.000 256.833 C 274.909 256.833,274.440 257.115,273.959 257.458 C 273.155 258.032,272.794 258.367,271.605 259.642 C 270.323 261.017,268.813 264.578,268.238 267.583 C 268.202 267.767,268.092 268.292,267.991 268.750 C 267.147 272.605,267.949 284.434,269.285 287.833 C 269.339 287.971,269.405 288.188,269.431 288.315 C 269.670 289.497,271.937 293.104,272.993 293.982 C 274.512 295.246,275.260 295.671,276.941 296.228 C 279.802 297.177,284.215 297.209,286.750 296.299 C 287.592 295.997,289.080 295.270,289.139 295.131 C 289.169 295.059,289.306 295.000,289.443 295.000 C 290.712 295.000,293.884 290.090,294.740 286.802 C 295.684 283.172,296.018 280.159,296.027 275.167 C 296.039 268.551,294.743 262.872,292.683 260.516 C 292.491 260.296,292.333 260.069,292.333 260.011 C 292.333 259.724,290.279 257.769,289.295 257.120 C 286.625 255.358,282.199 254.700,278.454 255.507 M358.583 255.269 C 358.400 255.316,357.810 255.463,357.272 255.596 C 354.975 256.161,353.025 257.335,351.829 258.872 C 351.454 259.355,351.057 259.863,350.948 260.001 C 348.755 262.777,348.635 269.324,350.719 272.467 C 351.620 273.825,355.157 276.670,355.169 276.046 C 355.171 275.975,355.227 276.002,355.294 276.106 C 355.491 276.411,358.172 277.495,361.500 278.614 C 363.270 279.210,364.474 279.688,365.083 280.035 C 365.267 280.140,365.570 280.306,365.757 280.405 C 367.898 281.529,368.972 284.015,368.519 286.802 C 367.949 290.317,365.644 292.011,361.417 292.024 C 356.635 292.038,354.541 289.922,354.506 285.042 L 354.500 284.167 351.729 284.167 L 348.957 284.167 349.072 286.208 C 349.215 288.754,349.714 290.537,350.661 291.889 C 351.031 292.416,351.333 292.898,351.333 292.959 C 351.333 293.114,352.833 294.524,353.368 294.872 C 357.850 297.786,365.304 297.670,369.833 294.616 C 374.975 291.149,376.300 282.341,372.286 278.306 C 371.139 277.153,367.442 274.833,366.751 274.833 C 366.696 274.833,366.091 274.571,365.405 274.250 C 364.720 273.929,364.123 273.667,364.078 273.667 C 364.033 273.667,363.678 273.523,363.290 273.347 C 362.403 272.946,359.539 271.833,359.394 271.833 C 359.204 271.833,357.218 270.532,356.801 270.134 C 355.222 268.627,354.741 265.901,355.602 263.333 C 356.410 260.924,359.399 259.622,362.893 260.156 C 366.173 260.657,367.597 262.507,367.585 266.250 L 367.583 266.917 370.383 266.917 L 373.182 266.917 373.148 265.750 C 373.109 264.401,372.796 262.474,372.498 261.750 C 370.629 257.200,367.598 255.395,361.583 255.248 C 360.117 255.213,358.767 255.222,358.583 255.269 M315.167 255.851 C 313.077 256.141,312.462 256.345,311.085 257.204 C 309.564 258.152,308.247 259.695,307.147 261.814 L 306.667 262.741 306.667 259.454 L 306.667 256.167 303.917 256.167 L 301.167 256.167 301.167 276.083 L 301.167 296.000 304.085 296.000 L 307.003 296.000 306.998 282.958 C 306.992 268.110,307.001 268.003,308.459 265.500 C 308.700 265.087,308.901 264.721,308.906 264.685 C 308.912 264.650,309.347 264.192,309.872 263.668 C 311.806 261.740,314.936 260.877,317.958 261.437 L 318.500 261.537 318.500 258.685 C 318.500 256.521,318.450 255.830,318.292 255.821 C 317.124 255.753,315.780 255.766,315.167 255.851 M164.000 275.831 L 164.000 295.833 169.751 295.833 L 175.501 295.833 175.459 275.875 L 175.417 255.917 169.708 255.873 L 164.000 255.829 164.000 275.831 M284.178 260.336 C 288.277 261.440,290.054 266.371,290.034 276.584 C 290.012 287.552,287.649 292.009,281.852 292.014 C 275.978 292.020,273.593 287.359,273.656 276.000 C 273.725 263.402,277.070 258.423,284.178 260.336 M129.526 263.519 C 131.337 264.426,131.355 264.553,131.298 276.605 L 131.250 286.750 130.847 287.453 C 129.761 289.346,126.315 289.342,125.109 287.446 C 124.600 286.646,124.593 286.508,124.541 276.583 C 124.496 267.737,124.538 266.372,124.896 265.250 C 125.498 263.366,127.629 262.569,129.526 263.519 M196.412 264.572 C 198.150 265.591,198.381 266.893,198.435 276.000 C 198.481 283.685,198.388 284.847,197.615 286.250 C 196.281 288.674,193.273 288.261,192.218 285.509 C 191.795 284.404,191.693 268.540,192.101 267.143 C 192.858 264.550,194.600 263.510,196.412 264.572 " stroke="none" fill="#cc242c" fill-rule="evenodd"></path><path id="path3" d="M90.208 94.453 C 90.460 94.491,90.873 94.491,91.125 94.453 C 91.377 94.415,91.171 94.383,90.667 94.383 C 90.162 94.383,89.956 94.415,90.208 94.453 M147.081 269.167 C 147.081 283.879,147.101 289.898,147.125 282.542 C 147.149 275.185,147.149 263.148,147.125 255.792 C 147.101 248.435,147.081 254.454,147.081 269.167 M316.627 255.785 C 316.834 255.824,317.134 255.823,317.294 255.781 C 317.453 255.739,317.283 255.707,316.917 255.709 C 316.550 255.711,316.420 255.745,316.627 255.785 M367.553 266.583 C 367.586 266.901,367.712 266.917,370.294 266.923 L 373.000 266.929 370.345 266.877 C 368.001 266.831,367.680 266.791,367.604 266.538 C 367.540 266.321,367.528 266.332,367.553 266.583 M77.069 280.833 C 77.069 282.438,77.094 283.094,77.124 282.292 C 77.155 281.490,77.155 280.177,77.124 279.375 C 77.094 278.573,77.069 279.229,77.069 280.833 " stroke="none" fill="#cc2434" fill-rule="evenodd"></path><path id="path4" d="" stroke="none" fill="#607460" fill-rule="evenodd"></path></g></svg>